<?xml version="1.0" encoding="UTF-8"?>
<svg version="1.1" xmlns="http://www.w3.org/2000/svg" width="64" height="64">
<path d="M0 0 C8.04071716 5.46768767 14.35713546 11.78672485 16.953125 21.328125 C17.97008074 32.73931439 17.08780568 41.52074309 9.640625 50.578125 C3.75028057 56.89640044 -1.9995096 60.87830798 -10.81640625 61.6640625 C-22.23808647 61.92046185 -29.76998744 60.10045244 -38.2578125 52.1875 C-45.41707366 44.7468705 -47.46537447 37.63799487 -47.41040039 27.37304688 C-47.154444 17.46241552 -43.06295379 11.07888989 -36.046875 4.328125 C-26.55128048 -3.80505814 -11.27874483 -6.1129075 0 0 Z " fill="#101A17" transform="translate(47.046875,2.671875)"/>
<path d="M0 0 C5.8147443 5.00714093 8.60721567 10.11579941 9.38671875 17.82421875 C9.82334294 28.0269922 8.23365819 35.28845626 1.6875 43.25 C-4.00288991 49.35379431 -9.6661447 53.35993736 -18.125 54.375 C-21.74367226 53.90299927 -22.55625062 52.60141063 -25 50 C-27.64184541 49.20318682 -27.64184541 49.20318682 -30 49 C-32 43.375 -32 43.375 -32 40 C-32.20625 39.34 -32.4125 38.68 -32.625 38 C-33 36 -33 36 -31 33 C-31.66 33 -32.32 33 -33 33 C-34.58163265 23.82653061 -34.58163265 23.82653061 -32 19 C-29 17.1875 -29 17.1875 -26 16 C-25.34 15.67 -24.68 15.34 -24 15 C-23.34 15.33 -22.68 15.66 -22 16 C-21.67 14.35 -21.34 12.7 -21 11 C-20.33333333 12.33333333 -19.66666667 13.66666667 -19 15 C-18.46375 16.03125 -17.9275 17.0625 -17.375 18.125 C-16 21 -16 21 -16 23 C-15.34 23 -14.68 23 -14 23 C-14 21.35 -14 19.7 -14 18 C-13.01 17.67 -12.02 17.34 -11 17 C-10.34 17.66 -9.68 18.32 -9 19 C-9.66 19 -10.32 19 -11 19 C-11 19.99 -11 20.98 -11 22 C-9.05000871 21.80528889 -9.05000871 21.80528889 -7 21 C-5.9596811 19.22371325 -5.9596811 19.22371325 -5 17 C-4.57460938 16.14664062 -4.14921875 15.29328125 -3.7109375 14.4140625 C-3.27007812 13.49367188 -2.82921875 12.57328125 -2.375 11.625 C-1.70597656 10.25214844 -1.70597656 10.25214844 -1.0234375 8.8515625 C0.09933362 5.72323075 0.18485258 3.29815921 0 0 Z " fill="#0F1713" transform="translate(55,10)"/>
<path d="M0 0 C0.66 0.33 1.32 0.66 2 1 C1.79375 1.5775 1.5875 2.155 1.375 2.75 C0.76280715 4.99936657 0.76280715 4.99936657 1.96875 6.78125 C3.2689129 9.57857018 3.19807984 11.68064663 3.125 14.75 C3.10695313 15.73484375 3.08890625 16.7196875 3.0703125 17.734375 C3.03550781 18.85585938 3.03550781 18.85585938 3 20 C6.465 19.505 6.465 19.505 10 19 C10 18.34 10 17.68 10 17 C8.68 16.67 7.36 16.34 6 16 C5.61781233 14.34385343 5.28604898 12.67542976 5 11 C6 10 6 10 8.8125 9.8125 C11.86698544 9.99217561 13.43795344 10.42335596 16 12 C16 10.35 16 8.7 16 7 C16.33 7 16.66 7 17 7 C18.81491413 13.87074636 17.23437003 17.41176421 13.73828125 23.484375 C12.01216895 25.98238921 10.28776562 28.00577661 8 30 C7.34 30 6.68 30 6 30 C6 28.68 6 27.36 6 26 C5.34 26 4.68 26 4 26 C3.67 27.65 3.34 29.3 3 31 C2.34 31 1.68 31 1 31 C0.34371151 29.79731319 -0.29947505 28.58747446 -0.9375 27.375 C-1.29714844 26.70210937 -1.65679687 26.02921875 -2.02734375 25.3359375 C-4.09751926 20.36419068 -4.20399629 15.14060306 -4.3125 9.8125 C-4.34988281 8.60207031 -4.38726562 7.39164063 -4.42578125 6.14453125 C-4 3 -4 3 -1.98046875 1.07421875 C-1.32691406 0.71972656 -0.67335937 0.36523438 0 0 Z " fill="#45322B" transform="translate(38,2)"/>
<path d="M0 0 C5.25244798 4.52294132 8.62808251 9.76132129 9.24609375 16.8046875 C9.24951158 19.21767221 9.18079969 21.5943597 9 24 C8.34 24.33 7.68 24.66 7 25 C6.484375 24.278125 5.96875 23.55625 5.4375 22.8125 C2.56617403 19.49943158 -0.3706338 17.44284263 -4 15 C-3.566875 14.12988281 -3.566875 14.12988281 -3.125 13.2421875 C-0.94519199 8.65550815 0.53310477 5.19777151 0 0 Z " fill="#111A17" transform="translate(55,10)"/>
<path d="M0 0 C0.33 0 0.66 0 1 0 C2.269698 5.37179924 2.31303879 8.12474726 -0.4375 13 C-1.27182768 14.34583647 -2.11954062 15.6838808 -3 17 C-3.33 17 -3.66 17 -4 17 C-4.66 14.69 -5.32 12.38 -6 10 C-7.32 9.67 -8.64 9.34 -10 9 C-10.38218767 7.34385343 -10.71395102 5.67542976 -11 4 C-10 3 -10 3 -7.1875 2.8125 C-4.13301456 2.99217561 -2.56204656 3.42335596 0 5 C0 3.35 0 1.7 0 0 Z " fill="#563F37" transform="translate(54,9)"/>
<path d="M0 0 C2.475 0.495 2.475 0.495 5 1 C5 3.97 5 6.94 5 10 C4.01 10.495 4.01 10.495 3 11 C3.33 12.65 3.66 14.3 4 16 C4.99 15.67 5.98 15.34 7 15 C6.67 17.97 6.34 20.94 6 24 C0.34053919 18.34053919 -0.05248417 12.92733442 -0.0625 5.125 C-0.04655506 3.41661405 -0.02735618 1.70824133 0 0 Z " fill="#7C6C62" transform="translate(34,8)"/>
<path d="M0 0 C0.66 0.33 1.32 0.66 2 1 C1.79375 1.5775 1.5875 2.155 1.375 2.75 C0.76607751 4.99126632 0.76607751 4.99126632 1.9375 6.75 C3.26341274 9.55781521 3.08969764 11.96745071 3.00390625 15.02734375 C2.99911828 17.44526904 3.41482044 19.65928174 4 22 C4.66 22 5.32 22 6 22 C6 22.66 6 23.32 6 24 C4.68 23.34 3.36 22.68 2 22 C1.34 22.66 0.68 23.32 0 24 C-0.66 21.36 -1.32 18.72 -2 16 C-1.01 16 -0.02 16 1 16 C1 13.03 1 10.06 1 7 C-0.65 6.67 -2.3 6.34 -4 6 C-4 5.01 -4 4.02 -4 3 C-2 1.3125 -2 1.3125 0 0 Z " fill="#4F3C34" transform="translate(38,2)"/>
<path d="M0 0 C2.59094622 0.35012787 4.5774211 0.73770965 6.8125 2.125 C8.63883169 5.00868162 8.18806842 7.67745793 8 11 C7.01 11.495 7.01 11.495 6 12 C5.443125 11.2575 4.88625 10.515 4.3125 9.75 C2.06972822 7.08292005 -0.22074975 5.08443768 -3 3 C-2.67 2.34 -2.34 1.68 -2 1 C-1.01 1.33 -0.02 1.66 1 2 C0.67 1.34 0.34 0.68 0 0 Z " fill="#1E1A18" transform="translate(56,23)"/>
<path d="M0 0 C1.76462683 3.08809695 2 4.23312136 2 8 C3.65 8.33 5.3 8.66 7 9 C7 9.99 7 10.98 7 12 C4.36 12 1.72 12 -1 12 C-2.28317892 8.15046324 -2.06643637 5.05261865 -2 1 C-1.34 0.67 -0.68 0.34 0 0 Z " fill="#352922" transform="translate(42,10)"/>
<path d="M0 0 C1.32 0.66 2.64 1.32 4 2 C3.34 2 2.68 2 2 2 C2 2.99 2 3.98 2 5 C3.97536745 4.65213292 3.97536745 4.65213292 6 4 C6.33 3.34 6.66 2.68 7 2 C6.35455571 5.48539917 4.89865603 8.02819057 3 11 C1.68 10.67 0.36 10.34 -1 10 C-2.46726798 6.18510326 -1.43336419 3.70988378 0 0 Z " fill="#171C17" transform="translate(42,27)"/>
<path d="M0 0 C0.33 0.66 0.66 1.32 1 2 C1.99 2 2.98 2 4 2 C3.79375 2.721875 3.5875 3.44375 3.375 4.1875 C2.94047789 7.44641585 3.58319331 9.08304504 5 12 C4.34 12 3.68 12 3 12 C3 13.98 3 15.96 3 18 C2.34 17.67 1.68 17.34 1 17 C-0.0149136 11.31648386 -0.12001711 5.76082132 0 0 Z " fill="#743F4C" transform="translate(20,41)"/>
<path d="M0 0 C0.99 1.485 0.99 1.485 2 3 C-1.3 3 -4.6 3 -8 3 C-8.33 1.68 -8.66 0.36 -9 -1 C-5.25055078 -2.04151367 -3.26054893 -2.24865443 0 0 Z " fill="#523831" transform="translate(32,61)"/>
<path d="M0 0 C0.33 0 0.66 0 1 0 C2.269698 5.37179924 2.31303879 8.12474726 -0.4375 13 C-1.27182768 14.34583647 -2.11954062 15.6838808 -3 17 C-4.29818286 12.78320746 -3.37201755 10.18826409 -2 6 C-1.62875 4.865625 -1.2575 3.73125 -0.875 2.5625 C-0.58625 1.716875 -0.2975 0.87125 0 0 Z " fill="#786860" transform="translate(54,9)"/>
<path d="M0 0 C0.66 0 1.32 0 2 0 C2.66 1.32 3.32 2.64 4 4 C4.66 3.67 5.32 3.34 6 3 C5.67 5.97 5.34 8.94 5 12 C1.70339076 8.70339076 0.08731736 6.92098191 -0.125 2.25 C-0.063125 1.13625 -0.063125 1.13625 0 0 Z " fill="#B3A196" transform="translate(35,20)"/>
<path d="M0 0 C2.59094622 0.35012787 4.5774211 0.73770965 6.8125 2.125 C8.63883169 5.00868162 8.18806842 7.67745793 8 11 C7.01 11.495 7.01 11.495 6 12 C4.875 8.25 4.875 8.25 6 6 C4.62776167 3.25552334 2.59786905 2.53207662 0 1 C0 0.67 0 0.34 0 0 Z " fill="#422A2F" transform="translate(56,23)"/>
<path d="M0 0 C1.4540625 0.0309375 1.4540625 0.0309375 2.9375 0.0625 C2.2775 0.7225 1.6175 1.3825 0.9375 2.0625 C1.2675 3.0525 1.5975 4.0425 1.9375 5.0625 C0.2875 5.3925 -1.3625 5.7225 -3.0625 6.0625 C-3.44468767 4.40635343 -3.77645102 2.73792976 -4.0625 1.0625 C-3.0625 0.0625 -3.0625 0.0625 0 0 Z " fill="#46312A" transform="translate(47.0625,11.9375)"/>
<path d="M0 0 C1.32 0.66 2.64 1.32 4 2 C3.34 2 2.68 2 2 2 C2 2.99 2 3.98 2 5 C2.66 5.33 3.32 5.66 4 6 C2.02 6.33 0.04 6.66 -2 7 C-1.34 4.69 -0.68 2.38 0 0 Z " fill="#27221D" transform="translate(42,27)"/>
<path d="M0 0 C0.66 0.33 1.32 0.66 2 1 C1.835 1.598125 1.67 2.19625 1.5 2.8125 C0.8885876 5.11344336 0.8885876 5.11344336 1 8 C-1.475 7.01 -1.475 7.01 -4 6 C-4 5.01 -4 4.02 -4 3 C-2 1.3125 -2 1.3125 0 0 Z " fill="#3E3734" transform="translate(38,2)"/>
<path d="M0 0 C0.66 0 1.32 0 2 0 C2 2.31 2 4.62 2 7 C1.01 7 0.02 7 -1 7 C-1.04254356 5.00045254 -1.04080783 2.99958364 -1 1 C-0.67 0.67 -0.34 0.34 0 0 Z " fill="#D1C7BF" transform="translate(36,10)"/>
<path d="M0 0 C0.33 0 0.66 0 1 0 C1 1.98 1 3.96 1 6 C-0.32 5.67 -1.64 5.34 -3 5 C-3 4.01 -3 3.02 -3 2 C-3.66 1.67 -4.32 1.34 -5 1 C-2.525 1.495 -2.525 1.495 0 2 C0 1.34 0 0.68 0 0 Z " fill="#232522" transform="translate(53,8)"/>
<path d="M0 0 C0.66 0.99 1.32 1.98 2 3 C0.37660195 4.70884005 -1.29319053 6.37446717 -3 8 C-3.66 8 -4.32 8 -5 8 C-5 7.01 -5 6.02 -5 5 C-4.01 5 -3.02 5 -2 5 C-2 4.34 -2 3.68 -2 3 C-1.34 3 -0.68 3 0 3 C0 2.01 0 1.02 0 0 Z " fill="#553F39" transform="translate(49,24)"/>
<path d="M0 0 C0 0.99 0 1.98 0 3 C-2.31 3 -4.62 3 -7 3 C-7 2.34 -7 1.68 -7 1 C-4.53721199 -0.231394 -2.7204945 -0.07159196 0 0 Z " fill="#151B16" transform="translate(49,19)"/>
<path d="M0 0 C0.66 0.33 1.32 0.66 2 1 C0.37660195 2.70884005 -1.29319053 4.37446717 -3 6 C-3.66 6 -4.32 6 -5 6 C-4.67 4.68 -4.34 3.36 -4 2 C-3.01 2 -2.02 2 -1 2 C-0.67 1.34 -0.34 0.68 0 0 Z " fill="#362124" transform="translate(29,23)"/>
<path d="M0 0 C1.65 0.33 3.3 0.66 5 1 C4.34 2.32 3.68 3.64 3 5 C2.34 5 1.68 5 1 5 C1 4.34 1 3.68 1 3 C0.34 3 -0.32 3 -1 3 C-0.67 2.01 -0.34 1.02 0 0 Z " fill="#312620" transform="translate(43,21)"/>
<path d="M0 0 C1.32 0 2.64 0 4 0 C4 0.99 4 1.98 4 3 C4.66 3.33 5.32 3.66 6 4 C4.35 4 2.7 4 1 4 C0.67 2.68 0.34 1.36 0 0 Z " fill="#A68C77" transform="translate(23,60)"/>
</svg>
